<svg width="232" height="36" viewBox="0 0 232 36" fill="none" xmlns="http://www.w3.org/2000/svg">
<g clip-path="url(#clip0_2532_15940)">
<path fill-rule="evenodd" clip-rule="evenodd" d="M0 0H36.6428V17.9515H34.2348C34.2082 9.15643 27.1086 2.1033 18.2489 2.07687C9.38922 2.10624 2.28666 9.15643 2.26004 17.9545C2.28962 26.7525 9.38922 33.8027 18.2489 33.8291C27.1057 33.8027 34.2053 26.7525 34.2348 17.9545H36.6428V36H0V0ZM15.5955 16.565L15.1725 16.8911C14.6311 17.2436 13.9922 17.4316 13.3443 17.4257C12.7202 17.4404 12.096 17.3464 11.5043 17.1496C11.3801 17.1055 11.2588 17.0497 11.1405 16.9851L11.0784 16.9469L10.6287 16.5826L10.1525 16.8999L10.0134 16.9645C9.8744 17.0203 9.73241 17.0673 9.58746 17.1055V8.98313H16.0451V15.152H20.154V8.98313H26.6147V17.0321L26.4727 16.9645L26.3129 16.8823L25.9017 16.6502L25.4994 16.894L25.3456 16.9792C24.8398 17.2612 24.2807 17.4287 23.7038 17.4786C23.1359 17.4639 22.5738 17.3611 22.0413 17.1702C21.855 17.1055 21.6745 17.035 21.497 16.9557L21.3166 16.8705L20.9557 16.6796L20.5889 16.8558L20.3966 16.9381C19.7073 17.2289 18.9708 17.3934 18.2223 17.4257C17.7047 17.414 17.1929 17.3112 16.7107 17.1261C16.5451 17.0644 16.3824 16.9939 16.2226 16.9175L16.0954 16.8529L16.0629 16.8353L15.5955 16.565ZM25.9283 18.4715L25.9269 18.4722L25.9253 18.4715H25.9283ZM25.9269 18.4722C26.1512 18.5806 26.3785 18.6744 26.6116 18.7535V27.2989H20.151V20.9332H16.0421V27.2989H9.58442V18.7388C9.90982 18.6771 10.2263 18.586 10.537 18.4715C11.4185 18.8622 12.3799 19.0502 13.3443 19.0179C14.1666 19.0179 14.9772 18.8181 15.7019 18.4333C16.4917 18.8005 17.3526 18.9973 18.2252 19.0179C19.1511 18.9914 20.0682 18.7976 20.9231 18.445C21.7987 18.8328 22.7453 19.0443 23.7037 19.0678C24.4783 19.0326 25.238 18.8301 25.9269 18.4722ZM229.205 10.5106C227.832 10.5106 226.835 9.45311 226.835 8.08714C226.835 6.72117 227.832 5.6842 229.205 5.6842C230.577 5.6842 231.562 6.74173 231.562 8.08714C231.562 9.43255 230.568 10.5106 229.205 10.5106ZM229.205 10.8808C230.752 10.8808 232.003 9.63231 232.003 8.09008C232.003 6.54785 230.752 5.31407 229.205 5.31407C227.658 5.31407 226.391 6.56254 226.391 8.09008C226.391 9.61762 227.652 10.8808 229.205 10.8808ZM229.66 8.21639C230.216 8.20171 230.639 7.96964 230.639 7.36156C230.639 6.85042 230.361 6.53904 229.53 6.53904H228.163V9.64406H228.545V8.21346H229.246L230.142 9.64406H230.604L229.657 8.21346L229.66 8.21639ZM228.545 7.91382V6.80929H229.441C229.829 6.80929 230.228 6.86805 230.228 7.35568C230.228 7.92829 229.686 7.92084 229.258 7.91496C229.233 7.91462 229.209 7.91428 229.185 7.91406C229.168 7.91392 229.152 7.91382 229.137 7.91382H228.548H228.545ZM78.3677 31.4261L79.341 28.0303H87.822L88.8307 31.4261H97.3148L88.0025 5.6724H79.341L70.0287 31.4261H78.3677ZM86.3429 22.6633H80.965L83.6007 13.4335L86.3429 22.6633ZM108.881 21.9113L116.147 9.71508L121.595 31.4232H129.967L132.928 16.4709H133.002L135.996 31.4232H144.37L150.831 5.66946H142.601L139.679 21.5882H139.605L136.502 5.66946H136.499H129.461L126.358 21.5882H126.284L123.361 5.66946H118.557H115.132H109.171L104.695 14.397L100.22 5.66946H90.6944L100.365 22.0553V31.4261H108.884V21.9113H108.881ZM186.734 22.446C190.707 22.446 191.284 23.5564 191.284 26.9199C191.284 29.2112 191.5 30.8533 191.716 31.4261H200.345V30.6389C199.426 30.6389 199.429 29.6975 199.438 27.0085C199.439 26.7349 199.439 26.4432 199.439 26.1326C199.439 20.9449 197.78 20.3015 195.038 19.2998C198.07 18.4744 199.407 15.9745 199.407 13.0046C199.407 7.99602 196.555 5.66946 187.894 5.66946H175.62V31.4261H184.14V22.446H186.734ZM184.137 11.6827H188.107C190.092 11.6827 191.535 12.5405 191.535 14.3617C191.535 16.183 190.133 16.7911 187.497 16.7911H184.137V11.6827ZM213.618 31.4261C221.957 31.4261 227.406 27.7042 227.406 18.0132C227.406 9.53531 222.206 5.6724 213.834 5.6724H202.43V31.4261H213.615H213.618ZM210.95 11.6827H212.574C217.117 11.6827 218.886 13.1103 218.886 18.4744C218.886 23.3419 216.718 25.4129 212.748 25.4129H210.947V11.6856L210.95 11.6827ZM43.6654 5.67244V31.4262H52.182V21.4472H60.2311V31.4262H68.7477V5.67244H60.2311V14.3647H52.182V5.67244H43.6654ZM156.242 28.0305L155.268 31.4263H146.932L156.242 5.67258H164.903L174.215 31.4263H165.731L164.723 28.0305H156.242ZM157.866 22.6635H163.244L160.501 13.4337L157.866 22.6635Z" fill="#181818"/>
</g>
<defs>
<clipPath id="clip0_2532_15940">
<rect width="232" height="36" fill="white"/>
</clipPath>
</defs>
</svg>
